<svg height="512" width="512" viewBox="0 0 512 512">
    <g>
        <g>
            <path d="m271 105v62c0 8.28-6.72 15-15 15s-15-6.72-15-15v-62c0-8.28 6.72-15 15-15s15 6.72 15 15z" fill="#ffdf8e" />
        </g>
        <path d="m271 105v62c0 8.28-6.72 15-15 15v-92c8.28 0 15 6.72 15 15z" fill="#ffb64c" />
        <g>
            <path d="m301 188.26v-21.26c0-8.28-6.72-15-15-15h-60c-8.28 0-15 6.72-15 15v21.26c-70.23 19.92-120 84.8-120 158.74 0 90.98 74.02 165 165 165s165-74.02 165-165c0-73.94-49.77-138.82-120-158.74z" fill="#575f64" />
        </g>
        <path d="m421 347c0 90.98-74.02 165-165 165v-360h30c8.28 0 15 6.72 15 15v21.26c70.23 19.92 120 84.8 120 158.74z" fill="#32393f" />
        <g>
            <path d="m330.25 293.97c-5.86 5.85-15.36 5.86-21.22 0-14.62-14.63-33.83-21.94-53.03-21.94s-38.41 7.31-53.03 21.94c-5.86 5.85-15.36 5.85-21.22 0-5.85-5.86-5.85-15.36 0-21.22 20.47-20.47 47.36-30.7 74.25-30.7s53.78 10.23 74.25 30.7c5.85 5.86 5.85 15.36 0 21.22z" fill="#32393f" />
        </g>
        <path d="m330.25 293.97c-5.86 5.85-15.36 5.86-21.22 0-14.62-14.63-33.83-21.94-53.03-21.94v-29.98c26.89 0 53.78 10.23 74.25 30.7 5.85 5.86 5.85 15.36 0 21.22z" fill="#292929" />
        <g>
            <path d="m196 120h-30c-8.284 0-15-6.716-15-15s6.716-15 15-15h30c8.284 0 15 6.716 15 15s-6.716 15-15 15z" fill="#ffdf8e" />
        </g>
        <g>
            <path d="m346 120h-30c-8.284 0-15-6.716-15-15s6.716-15 15-15h30c8.284 0 15 6.716 15 15s-6.716 15-15 15z" fill="#ffb64c" />
        </g>
        <g>
            <path d="m287.82 73.18c-5.858-5.858-5.858-15.355 0-21.213l21.213-21.213c5.857-5.858 15.355-5.858 21.213 0s5.858 15.355 0 21.213l-21.213 21.213c-5.857 5.858-15.355 5.858-21.213 0z" fill="#ffb64c" />
        </g>
        <g>
            <path d="m202.967 73.18-21.213-21.213c-5.858-5.858-5.858-15.355 0-21.213 5.857-5.858 15.355-5.858 21.213 0l21.213 21.213c5.858 5.858 5.858 15.355 0 21.213-5.857 5.858-15.355 5.858-21.213 0z" fill="#ffdf8e" />
        </g>
        <g>
            <path d="m271 15v30c0 8.28-6.72 15-15 15s-15-6.72-15-15v-30c0-8.28 6.72-15 15-15s15 6.72 15 15z" fill="#ffdf8e" />
        </g>
        <path d="m271 15v30c0 8.28-6.72 15-15 15v-60c8.28 0 15 6.72 15 15z" fill="#ffb64c" />
    </g>
</svg>